<svg width="30" height="23" viewBox="0 0 30 23" fill="none" xmlns="http://www.w3.org/2000/svg">
<path fill-rule="evenodd" clip-rule="evenodd" d="M25.8806 1.32647C26.1841 1.02302 26.1841 0.531036 25.8806 0.227587C25.5772 -0.0758623 25.0852 -0.0758623 24.7817 0.227587L19.8563 5.15297C18.337 4.57334 16.6987 4.19596 15.0061 4.19596C11.2135 4.19596 7.57555 6.09173 4.9452 7.90791C3.618 8.8243 2.52016 9.73949 1.75366 10.4258C1.37 10.7693 1.06827 11.0565 0.861185 11.2591C0.757617 11.3604 0.677643 11.4406 0.622852 11.4963C0.595454 11.5242 0.574345 11.5458 0.559724 11.561L0.54268 11.5787L0.537851 11.5837L0.535861 11.5858C0.535758 11.5859 0.535663 11.586 0.626235 11.6723L0.626082 11.6723L0.53551 11.5862L0.322517 11.8101C0.298312 11.8282 0.274909 11.848 0.252449 11.8694C0.210422 11.9093 0.173851 11.9529 0.142758 11.9991L0 12.1492L0.0479828 12.1948C-0.0357895 12.4566 0.0221775 12.7547 0.224926 12.9679L0.54286 12.6655L0.542875 12.6655C0.224984 12.968 0.225122 12.9681 0.225278 12.9683L0.225785 12.9688L0.227268 12.9704L0.232097 12.9754L0.249141 12.9931C0.263762 13.0082 0.284871 13.0299 0.312269 13.0577C0.36706 13.1134 0.447034 13.1937 0.550602 13.295C0.757686 13.4976 1.05942 13.7847 1.44308 14.1283C2.20958 14.8146 3.30742 15.7298 4.63461 16.6462C5.33477 17.1296 6.10633 17.6187 6.93319 18.0761L3.33571 21.6736C3.03226 21.9771 3.03226 22.469 3.33571 22.7725C3.63916 23.0759 4.13114 23.0759 4.43459 22.7725L25.8806 1.32647ZM8.07995 16.9294L9.94649 15.0628C9.45964 14.248 9.17988 13.2952 9.17988 12.277C9.17988 9.273 11.6151 6.83778 14.6191 6.83778C15.6373 6.83778 16.5901 7.11754 17.4049 7.60439L18.6397 6.36959C17.4674 5.9844 16.2446 5.75002 15.0061 5.75002C11.6903 5.75002 8.37452 7.42859 5.82819 9.18675C4.56704 10.0575 3.5208 10.9295 2.79031 11.5836C2.42548 11.9102 2.14049 12.1816 1.94797 12.3699L1.88974 12.4271C2.05279 12.5818 2.2505 12.7652 2.47973 12.9705C3.21022 13.6246 4.25646 14.4965 5.51761 15.3673C6.30563 15.9114 7.16735 16.4479 8.07995 16.9294ZM16.2566 8.75275C15.759 8.52115 15.2041 8.39184 14.6191 8.39184C12.4734 8.39184 10.7339 10.1313 10.7339 12.277C10.7339 12.862 10.8632 13.4169 11.0948 13.9145L16.2566 8.75275ZM19.2835 9.47754L18.1364 10.6247C18.3723 11.1261 18.5042 11.6861 18.5042 12.277C18.5042 14.4227 16.7648 16.1621 14.6191 16.1621C14.0282 16.1621 13.4682 16.0302 12.9668 15.7943L11.8196 16.9414C12.6375 17.4333 13.5952 17.7162 14.6191 17.7162C17.6231 17.7162 20.0583 15.281 20.0583 12.277C20.0583 11.2531 19.7754 10.2954 19.2835 9.47754ZM14.6955 18.804C13.342 18.804 11.9885 18.5243 10.6873 18.0737L9.47804 19.283C11.1209 19.9288 12.8907 20.3581 14.6955 20.3581C18.4935 20.3581 22.0183 18.458 24.5382 16.6365C25.8091 15.7179 26.85 14.8005 27.5737 14.1126C27.936 13.7682 28.2199 13.4802 28.4146 13.2769C28.5119 13.1752 28.587 13.0946 28.6385 13.0386L28.6735 13.0003L28.6979 12.9734L28.714 12.9555L28.7186 12.9503L28.7201 12.9487L28.7206 12.9482C28.7206 12.9481 28.7206 12.9481 28.7189 12.9465C28.717 12.9448 28.7131 12.9413 28.7049 12.934L28.7052 12.9338L28.7209 12.9478C28.7457 12.9198 28.7681 12.8905 28.7882 12.8602L29.5469 12.1878L29.0315 11.6063L28.703 11.8974L28.703 11.8974C29.0315 11.6062 29.0313 11.6061 29.0312 11.6059L29.0292 11.6037L29.0246 11.5986L29.0085 11.5806C28.9947 11.5653 28.9749 11.5435 28.9491 11.5155C28.8976 11.4595 28.8225 11.3789 28.7252 11.2772C28.5305 11.0738 28.2466 10.7859 27.8843 10.4415C27.1606 9.75353 26.1197 8.83619 24.8488 7.91759C24.1143 7.38666 23.2944 6.84905 22.4073 6.35377L21.2616 7.4995C22.2242 8.00965 23.1248 8.58894 23.9384 9.17707C25.1401 10.0456 26.1273 10.9155 26.8136 11.5679C27.0322 11.7756 27.2197 11.9609 27.3735 12.1165C27.3488 12.1427 27.3216 12.1714 27.292 12.2022C27.1124 12.3899 26.8458 12.6604 26.5031 12.9862C25.8167 13.6386 24.8295 14.5084 23.6279 15.377C21.2029 17.1298 18.0057 18.804 14.6955 18.804Z" fill="black"/>
</svg>
