<svg width="40" height="40" viewBox="0 0 40 40" fill="none" xmlns="http://www.w3.org/2000/svg">
<path d="M39.0313 20.3899C39.0313 19.0451 38.9012 17.6569 38.6843 16.3555H19.9004V24.0339H30.6588C30.225 26.5066 28.7934 28.6756 26.6678 30.0638L33.0881 35.0526C36.8623 31.5387 39.0313 26.4198 39.0313 20.3899Z" fill="#4280EF"/>
<path d="M19.9014 39.8243C25.2806 39.8243 29.7922 38.0457 33.0891 35.0091L26.6688 30.0637C24.8901 31.2783 22.591 31.9724 19.9014 31.9724C14.6957 31.9724 10.3142 28.4586 8.70911 23.7734L2.11523 28.849C5.49894 35.573 12.3531 39.8243 19.9014 39.8243Z" fill="#34A353"/>
<path d="M8.70869 23.7305C7.88445 21.2578 7.88445 18.5682 8.70869 16.0955L2.11481 10.9766C-0.704938 16.6161 -0.704938 23.2533 2.11481 28.8494L8.70869 23.7305Z" fill="#F6B704"/>
<path d="M19.9014 7.89606C22.7211 7.85268 25.4975 8.9372 27.5364 10.8893L33.2193 5.16307C29.6186 1.77937 24.8468 -0.0426237 19.9014 0.00075712C12.3531 0.00075712 5.49894 4.25207 2.11523 10.9761L8.70911 16.095C10.3142 11.3665 14.6957 7.89606 19.9014 7.89606Z" fill="#E54335"/>
</svg>
