<svg width="22" height="12" viewBox="0 0 22 12" fill="none" xmlns="http://www.w3.org/2000/svg">
<path fill-rule="evenodd" clip-rule="evenodd" d="M1.84113 6.5149C1.67092 6.3625 1.52412 6.22631 1.40305 6.11145L1.44632 6.06894C1.58925 5.9291 1.80085 5.72764 2.07173 5.4851C2.6141 4.99947 3.3909 4.35205 4.32727 3.70552C6.21785 2.40013 8.67973 1.15385 11.1416 1.15385C13.5994 1.15385 15.9732 2.39691 17.7736 3.69833C18.6658 4.34322 19.3988 4.98904 19.9084 5.47344C20.0706 5.62768 20.2099 5.76524 20.3241 5.8808C20.3057 5.90029 20.2855 5.92156 20.2635 5.9445C20.1302 6.0838 19.9323 6.28466 19.6778 6.52656C19.1682 7.01096 18.4352 7.65678 17.543 8.30167C15.7426 9.60309 13.3688 10.8462 10.911 10.8462C8.44913 10.8462 5.98725 9.59987 4.09667 8.29448C3.1603 7.64795 2.3835 7.00053 1.84113 6.5149ZM21.3111 5.71814L21.3112 5.71815L21.5551 5.50196L21.9377 5.93372L21.3745 6.43289C21.3596 6.45544 21.3429 6.47722 21.3245 6.49804L21.3127 6.48763L21.3126 6.48778C21.3243 6.49824 21.3243 6.49829 21.3242 6.49833L21.3239 6.49875L21.3228 6.49995L21.3194 6.50378L21.3074 6.5171C21.2972 6.52844 21.2824 6.54467 21.2633 6.56547C21.2251 6.60705 21.1693 6.6669 21.097 6.7424C20.9525 6.89336 20.7417 7.10717 20.4727 7.36286C19.9354 7.87366 19.1625 8.55476 18.219 9.23679C16.348 10.5892 13.7309 12 10.911 12C8.09512 12 5.39404 10.5924 3.44107 9.24398C2.45567 8.56359 1.64055 7.88409 1.07145 7.37452C0.786587 7.11946 0.562561 6.90626 0.408807 6.75584C0.33191 6.68061 0.272532 6.62102 0.231851 6.57969C0.211509 6.55902 0.195836 6.54291 0.18498 6.53169L0.172325 6.51855L0.16874 6.51481L0.167639 6.51366L0.167262 6.51326C0.167147 6.51314 0.167044 6.51303 0.403102 6.28845L0.403091 6.28844L0.167002 6.51299C0.016454 6.3547 -0.0265797 6.13329 0.0356411 5.93895L0 5.90505L0.106136 5.79346C0.129191 5.75923 0.156297 5.72697 0.187436 5.69735C0.204049 5.68155 0.221356 5.66693 0.239255 5.6535L0.397601 5.48701L0.464902 5.55103L0.465015 5.551C0.397715 5.48689 0.397786 5.48682 0.397862 5.48674L0.399339 5.48519L0.402925 5.48145L0.41558 5.46831C0.426435 5.45709 0.442108 5.44098 0.46245 5.42031C0.503131 5.37898 0.562509 5.31939 0.639406 5.24416C0.79316 5.09374 1.01719 4.88054 1.30204 4.62548C1.87115 4.11591 2.68627 3.43641 3.67167 2.75602C5.62463 1.40756 8.32572 0 11.1416 0C13.9615 0 16.5786 1.41078 18.4496 2.76321C19.3931 3.44524 20.166 4.12634 20.7033 4.63714C20.9723 4.89283 21.1831 5.10664 21.3276 5.2576C21.3999 5.3331 21.4557 5.39295 21.4939 5.43453C21.513 5.45533 21.5278 5.47156 21.538 5.4829L21.55 5.49622L21.5534 5.50005L21.5548 5.50167C21.5549 5.5018 21.555 5.50191 21.3111 5.71814ZM13.7389 6C13.7389 7.59313 12.4474 8.88461 10.8543 8.88461C9.26114 8.88461 7.96965 7.59313 7.96965 6C7.96965 4.40687 9.26114 3.11538 10.8543 3.11538C12.4474 3.11538 13.7389 4.40687 13.7389 6ZM14.8927 6C14.8927 8.23038 13.0846 10.0385 10.8543 10.0385C8.62389 10.0385 6.81581 8.23038 6.81581 6C6.81581 3.76962 8.62389 1.96154 10.8543 1.96154C13.0846 1.96154 14.8927 3.76962 14.8927 6Z" fill="black"/>
</svg>
